<?xml version="1.0" standalone="no"?>
<svg xmlns:xlink="http://www.w3.org/1999/xlink" id="wave" style="transform:rotate(180deg); transition: 0.3s" viewBox="0 0 1440 490" version="1.1" xmlns="http://www.w3.org/2000/svg"><defs><linearGradient id="sw-gradient-0" x1="0" x2="0" y1="1" y2="0"><stop stop-color="rgba(222.56, 62, 243, 1)" offset="0%"/><stop stop-color="rgba(143.099, 125.415, 209.834, 1)" offset="100%"/></linearGradient></defs><path style="transform:translate(0, 0px); opacity:1" fill="url(#sw-gradient-0)" d="M0,0L60,57.2C120,114,240,229,360,277.7C480,327,600,310,720,269.5C840,229,960,163,1080,114.3C1200,65,1320,33,1440,81.7C1560,131,1680,261,1800,310.3C1920,359,2040,327,2160,285.8C2280,245,2400,196,2520,220.5C2640,245,2760,343,2880,359.3C3000,376,3120,310,3240,236.8C3360,163,3480,82,3600,98C3720,114,3840,229,3960,236.8C4080,245,4200,147,4320,138.8C4440,131,4560,212,4680,253.2C4800,294,4920,294,5040,245C5160,196,5280,98,5400,98C5520,98,5640,196,5760,269.5C5880,343,6000,392,6120,367.5C6240,343,6360,245,6480,236.8C6600,229,6720,310,6840,310.3C6960,310,7080,229,7200,163.3C7320,98,7440,49,7560,81.7C7680,114,7800,229,7920,277.7C8040,327,8160,310,8280,294C8400,278,8520,261,8580,253.2L8640,245L8640,490L8580,490C8520,490,8400,490,8280,490C8160,490,8040,490,7920,490C7800,490,7680,490,7560,490C7440,490,7320,490,7200,490C7080,490,6960,490,6840,490C6720,490,6600,490,6480,490C6360,490,6240,490,6120,490C6000,490,5880,490,5760,490C5640,490,5520,490,5400,490C5280,490,5160,490,5040,490C4920,490,4800,490,4680,490C4560,490,4440,490,4320,490C4200,490,4080,490,3960,490C3840,490,3720,490,3600,490C3480,490,3360,490,3240,490C3120,490,3000,490,2880,490C2760,490,2640,490,2520,490C2400,490,2280,490,2160,490C2040,490,1920,490,1800,490C1680,490,1560,490,1440,490C1320,490,1200,490,1080,490C960,490,840,490,720,490C600,490,480,490,360,490C240,490,120,490,60,490L0,490Z"/><defs><linearGradient id="sw-gradient-1" x1="0" x2="0" y1="1" y2="0"><stop stop-color="rgba(135.718, 99.43, 248.54, 1)" offset="0%"/><stop stop-color="rgba(237.156, 160.492, 212.048, 1)" offset="100%"/></linearGradient></defs><path style="transform:translate(0, 50px); opacity:0.9" fill="url(#sw-gradient-1)" d="M0,441L60,400.2C120,359,240,278,360,277.7C480,278,600,359,720,343C840,327,960,212,1080,179.7C1200,147,1320,196,1440,187.8C1560,180,1680,114,1800,89.8C1920,65,2040,82,2160,138.8C2280,196,2400,294,2520,318.5C2640,343,2760,294,2880,302.2C3000,310,3120,376,3240,375.7C3360,376,3480,310,3600,253.2C3720,196,3840,147,3960,114.3C4080,82,4200,65,4320,73.5C4440,82,4560,114,4680,138.8C4800,163,4920,180,5040,163.3C5160,147,5280,98,5400,65.3C5520,33,5640,16,5760,8.2C5880,0,6000,0,6120,57.2C6240,114,6360,229,6480,236.8C6600,245,6720,147,6840,138.8C6960,131,7080,212,7200,212.3C7320,212,7440,131,7560,155.2C7680,180,7800,310,7920,326.7C8040,343,8160,245,8280,212.3C8400,180,8520,212,8580,228.7L8640,245L8640,490L8580,490C8520,490,8400,490,8280,490C8160,490,8040,490,7920,490C7800,490,7680,490,7560,490C7440,490,7320,490,7200,490C7080,490,6960,490,6840,490C6720,490,6600,490,6480,490C6360,490,6240,490,6120,490C6000,490,5880,490,5760,490C5640,490,5520,490,5400,490C5280,490,5160,490,5040,490C4920,490,4800,490,4680,490C4560,490,4440,490,4320,490C4200,490,4080,490,3960,490C3840,490,3720,490,3600,490C3480,490,3360,490,3240,490C3120,490,3000,490,2880,490C2760,490,2640,490,2520,490C2400,490,2280,490,2160,490C2040,490,1920,490,1800,490C1680,490,1560,490,1440,490C1320,490,1200,490,1080,490C960,490,840,490,720,490C600,490,480,490,360,490C240,490,120,490,60,490L0,490Z"/><defs><linearGradient id="sw-gradient-2" x1="0" x2="0" y1="1" y2="0"><stop stop-color="rgba(118.526, 56.042, 237.156, 1)" offset="0%"/><stop stop-color="rgba(248.54, 178.019, 208.72, 1)" offset="100%"/></linearGradient></defs><path style="transform:translate(0, 100px); opacity:0.8" fill="url(#sw-gradient-2)" d="M0,147L60,163.3C120,180,240,212,360,228.7C480,245,600,245,720,204.2C840,163,960,82,1080,73.5C1200,65,1320,131,1440,147C1560,163,1680,131,1800,155.2C1920,180,2040,261,2160,253.2C2280,245,2400,147,2520,138.8C2640,131,2760,212,2880,269.5C3000,327,3120,359,3240,367.5C3360,376,3480,359,3600,351.2C3720,343,3840,343,3960,326.7C4080,310,4200,278,4320,277.7C4440,278,4560,310,4680,269.5C4800,229,4920,114,5040,114.3C5160,114,5280,229,5400,302.2C5520,376,5640,408,5760,367.5C5880,327,6000,212,6120,147C6240,82,6360,65,6480,57.2C6600,49,6720,49,6840,81.7C6960,114,7080,180,7200,187.8C7320,196,7440,147,7560,138.8C7680,131,7800,163,7920,155.2C8040,147,8160,98,8280,98C8400,98,8520,147,8580,171.5L8640,196L8640,490L8580,490C8520,490,8400,490,8280,490C8160,490,8040,490,7920,490C7800,490,7680,490,7560,490C7440,490,7320,490,7200,490C7080,490,6960,490,6840,490C6720,490,6600,490,6480,490C6360,490,6240,490,6120,490C6000,490,5880,490,5760,490C5640,490,5520,490,5400,490C5280,490,5160,490,5040,490C4920,490,4800,490,4680,490C4560,490,4440,490,4320,490C4200,490,4080,490,3960,490C3840,490,3720,490,3600,490C3480,490,3360,490,3240,490C3120,490,3000,490,2880,490C2760,490,2640,490,2520,490C2400,490,2280,490,2160,490C2040,490,1920,490,1800,490C1680,490,1560,490,1440,490C1320,490,1200,490,1080,490C960,490,840,490,720,490C600,490,480,490,360,490C240,490,120,490,60,490L0,490Z"/></svg>